HIERARCHY
ROOT Hips
{
	OFFSET	0.00	0.00	0.00
	CHANNELS 6 Xposition Yposition Zposition Zrotation Xrotation Yrotation
	JOINT LeftUpLeg
	{
		OFFSET	 3.430000	 0.000000	 0.000000
		CHANNELS 3 Zrotation Xrotation Yrotation
		JOINT LeftLowLeg
		{
			OFFSET	 0.000000	-18.469999	 0.000000
			CHANNELS 3 Zrotation Xrotation Yrotation
			JOINT LeftFoot
			{
				OFFSET	 0.000000	-17.950001	 0.000000
				CHANNELS 3 Zrotation Xrotation Yrotation
				End Site 
				{
					OFFSET	 0.000000	-3.119997	 0.000000
				}
			}
		}
	}
	JOINT RightUpLeg
	{
		OFFSET	-3.430000	 0.000000	 0.000000
		CHANNELS 3 Zrotation Xrotation Yrotation
		JOINT RightLowLeg
		{
			OFFSET	 0.000000	-18.809999	 0.000000
			CHANNELS 3 Zrotation Xrotation Yrotation
			JOINT RightFoot
			{
				OFFSET	 0.000000	-17.570000	 0.000000
				CHANNELS 3 Zrotation Xrotation Yrotation
				End Site 
				{
					OFFSET	 0.000000	-3.250000	 0.000000
				}
			}
		}
	}
	JOINT Chest
	{
		OFFSET	 0.000000	 4.570000	 0.000000
		CHANNELS 3 Zrotation Xrotation Yrotation
		JOINT LeftCollar
		{
			OFFSET	 1.060000	 15.330000	 1.760000
			CHANNELS 3 Zrotation Xrotation Yrotation
			JOINT LeftUpArm
			{
				OFFSET	 5.810000	 0.000000	 0.000000
				CHANNELS 3 Zrotation Xrotation Yrotation
				JOINT LeftLowArm
				{
					OFFSET	 0.000000	-12.080000	 0.000000
					CHANNELS 3 Zrotation Xrotation Yrotation
					JOINT LeftHand
					{
						OFFSET	 0.000000	-9.820000	 0.000000
						CHANNELS 3 Zrotation Xrotation Yrotation
						End Site 
						{
							OFFSET	 0.000000	-7.369996	 0.000000
						}
					}
				}
			}
		}
		JOINT RightCollar
		{
			OFFSET	-1.060000	 15.330000	 1.760000
			CHANNELS 3 Zrotation Xrotation Yrotation
			JOINT RightUpArm
			{
				OFFSET	-6.060000	 0.000000	 0.000000
				CHANNELS 3 Zrotation Xrotation Yrotation
				JOINT RightLowArm
				{
					OFFSET	 0.000000	-11.900000	 0.000000
					CHANNELS 3 Zrotation Xrotation Yrotation
					JOINT RightHand
					{
						OFFSET	 0.000000	-9.520000	 0.000000
						CHANNELS 3 Zrotation Xrotation Yrotation
						End Site 
						{
							OFFSET	 0.000000	-7.140010	 0.000000
						}
					}
				}
			}
		}
		JOINT Neck
		{
			OFFSET	 0.000000	 17.620001	 0.000000
			CHANNELS 3 Zrotation Xrotation Yrotation
			JOINT Head
			{
				OFFSET	 0.000000	 5.190000	 0.000000
				CHANNELS 3 Zrotation Xrotation Yrotation
				End Site 
				{
					OFFSET	 0.000000	 4.140007	 0.000000
				}
			}
		}
	}
}
MOTION
Frames:     18
Frame Time: 0.033333
-29.15	 42.09	 12.04	-6.43	-4.50	-82.99	 1.46	-22.02	 0.55	 6.68	 22.83	-18.87	-3.87	 7.80	 2.44	-14.34	-18.82	-4.72	 6.31	 5.92	-49.68	-7.26	 10.59	 4.23	 3.64	 15.48	 5.84	 33.43	 0.00	 15.50	 90.36	-2.92	 97.96	 0.00	-15.89	 24.61	 0.00	 0.00	 0.00	-34.98	 0.00	-22.00	-134.87	-39.81	-109.32	 0.00	-22.54	-12.76	 0.00	 0.00	 0.00	-4.80	 36.62	 0.00	-1.99	-44.04	-12.44	
-31.73	 40.86	 12.40	-7.09	-6.45	-102.73	-1.69	-23.67	-0.68	 6.67	 21.83	-16.93	-3.86	 6.04	 2.32	-13.72	-22.63	-5.37	 9.46	 11.10	-54.44	-7.16	 4.36	 3.43	 2.89	 18.51	 15.74	 23.26	 0.00	 13.47	 87.93	 8.26	 94.86	 0.00	-15.70	 25.25	 0.00	 0.00	 0.00	-37.73	 0.00	-22.93	-145.52	-48.37	-116.76	 0.00	-25.20	-14.91	 0.00	 0.00	 0.00	-10.21	 35.94	 0.00	 1.12	-44.89	-5.58	
-34.71	 39.37	 12.74	-9.00	-9.43	-123.44	-4.44	-27.26	-2.03	 6.84	 24.03	-16.38	-3.85	 4.88	 2.24	-13.93	-27.30	-6.49	 12.33	 15.64	-56.82	-7.15	-2.49	 2.57	-0.92	 21.17	 25.88	 10.75	 0.00	 11.09	 83.43	 19.48	 90.02	 0.00	-15.81	 25.53	 0.00	 0.00	 0.00	-38.01	 0.00	-19.56	-161.79	-57.13	-128.04	 0.00	-27.70	-17.74	 0.00	 0.00	 0.00	-14.05	 34.76	 0.00	 3.88	-45.48	 0.64	
-38.05	 37.69	 12.78	-12.27	-11.66	-142.83	-6.33	-31.72	-3.34	 7.79	 30.64	-14.57	-3.84	 2.44	 2.08	-14.77	-32.26	-8.01	 17.03	 21.51	-56.29	-7.28	-11.40	 1.44	-6.18	 22.58	 33.40	-1.26	 0.00	 9.14	 73.92	 28.28	 88.24	 0.00	-16.08	 25.75	 0.00	 0.00	 0.00	-35.10	 0.00	-11.09	 176.57	-67.79	-144.30	 0.00	-29.22	-20.42	 0.00	 0.00	 0.00	-15.93	 33.16	 0.00	 6.14	-45.61	 5.57	
-41.57	 35.87	 12.43	-15.12	-10.50	-159.40	-6.60	-34.63	-3.76	 8.67	 42.19	-9.42	-3.84	-3.46	 1.68	-14.77	-37.41	-9.10	 22.75	 33.15	-54.85	-7.62	-20.50	 0.20	-9.47	 23.81	 36.92	-12.07	 0.00	 7.41	 59.30	 30.78	 91.79	 0.00	-16.56	 25.97	 0.00	 0.00	 0.00	-29.20	 0.00	 1.14	 114.90	-82.60	 154.91	 0.00	-28.86	-20.57	 0.00	 0.00	 0.00	-15.92	 31.44	 0.00	 7.91	-45.20	 8.75	
-44.98	 34.11	 11.76	-15.09	-6.25	-171.99	-5.79	-34.76	-3.31	 7.78	 55.45	-0.18	-3.91	-11.35	 1.15	-12.08	-42.27	-8.20	 26.57	 48.96	-55.32	-7.95	-26.08	-0.63	-9.52	 25.96	 36.44	-21.02	 0.00	 5.18	 45.14	 22.73	 92.52	 0.00	-17.53	 26.17	 0.00	 0.00	 0.00	-20.35	 0.00	 12.07	 4.05	-64.70	 35.15	 0.00	-27.54	-15.87	 0.00	 0.00	 0.00	-14.18	 30.01	 0.00	 9.16	-44.24	 9.81	
-47.96	 32.85	 10.94	-12.16	-1.70	 179.73	-5.16	-33.23	-2.83	 3.85	 65.94	 12.46	-4.02	-17.28	 0.72	-6.89	-44.72	-4.86	 27.18	 61.16	-56.27	-8.05	-27.51	-0.86	-7.80	 28.26	 31.67	-24.97	 0.00	 1.84	 37.43	 5.09	 76.98	 0.00	-19.31	 25.67	 0.00	 0.00	 0.00	-10.74	 0.00	 16.95	-16.55	-34.09	 0.92	 0.00	-26.00	-11.86	 0.00	 0.00	 0.00	-10.84	 29.28	 0.00	 9.54	-42.68	 8.34	
-50.43	 32.51	 10.09	-8.05	 1.42	 174.97	-4.87	-30.72	-2.49	-2.50	 70.66	 25.61	-4.08	-19.93	 0.52	-2.18	-43.43	-1.50	 23.05	 65.67	-52.98	-7.96	-26.13	-0.64	-5.76	 29.45	 22.35	-22.11	 0.00	-2.33	 39.90	-16.02	 54.38	 0.00	-22.19	 22.88	 0.00	 0.00	 0.00	-4.69	 0.00	 16.51	-34.12	-8.33	-20.31	 0.00	-22.60	-16.60	 0.00	 0.00	 0.00	-6.30	 29.61	 0.00	 8.81	-40.68	 4.22	
-52.52	 33.28	 9.28	-4.03	 2.53	 171.25	-3.92	-27.09	-1.79	-8.09	 68.33	 34.95	-4.08	-19.64	 0.54	 0.69	-39.72	 0.44	 14.65	 63.14	-43.22	-7.71	-22.20	-0.05	-4.48	 28.83	 10.59	-13.09	 0.00	-5.13	 55.57	-33.10	 47.44	 0.00	-25.15	 19.21	 0.00	 0.00	 0.00	-4.55	 0.00	 14.17	-50.97	 8.36	-26.03	 0.00	-18.91	-25.50	 0.00	 0.00	 0.00	-1.02	 31.10	 0.00	 6.77	-38.76	-1.99	
-54.38	 35.24	 8.42	-0.38	 1.75	 165.91	-1.55	-22.05	-0.58	-10.92	 58.88	 38.77	-3.97	-14.96	 0.89	 2.79	-33.97	 1.56	 5.66	 53.03	-29.50	-7.36	-14.08	 1.08	-4.73	 26.25	-0.06	-0.81	 0.00	-4.86	 79.18	-40.05	 57.56	 0.00	-26.86	 16.95	 0.00	 0.00	 0.00	-7.68	 0.00	 12.83	-65.15	 18.48	-24.05	 0.00	-16.52	-32.07	 0.00	 0.00	 0.00	 4.47	 33.50	 0.00	 3.68	-37.35	-9.04	
-56.10	 38.22	 7.34	 3.03	-0.45	 158.19	 1.37	-15.38	 0.36	-10.13	 43.76	 37.39	-3.85	-3.77	 1.66	 4.15	-25.75	 1.81	 0.42	 34.86	-16.50	-7.14	-0.18	 2.86	-5.70	 22.04	-8.92	 11.12	 0.00	-1.99	 98.64	-41.50	 72.64	 0.00	-28.11	 15.54	 0.00	 0.00	 0.00	-10.78	 0.00	 13.22	-75.66	 24.32	-21.92	 0.00	-15.40	-33.71	 0.00	 0.00	 0.00	 9.45	 36.24	 0.00	 0.25	-36.68	-15.61	
-57.79	 41.90	 6.00	 6.45	-3.97	 147.79	 3.87	-8.07	 0.54	-5.98	 26.89	 31.35	-3.94	 13.11	 2.81	 4.06	-17.42	 1.22	 0.64	 14.93	-6.69	-7.41	 15.52	 4.88	-5.58	 17.00	-16.69	 20.36	 0.00	 1.37	 112.48	-43.08	 86.06	 0.00	-29.27	 14.25	 0.00	 0.00	 0.00	-12.08	 0.00	 11.14	-82.92	 20.25	-23.20	 0.00	-13.52	-31.83	 0.00	 0.00	 0.00	 13.31	 38.71	 0.00	-2.82	-36.85	-20.72	
-59.63	 45.74	 4.50	 9.55	-9.05	 133.55	 5.98	-2.88	 0.30	-0.29	 15.96	 19.26	-4.36	 28.34	 3.99	 2.53	-14.11	 0.62	 4.52	 4.37	-2.34	-7.89	 25.18	 6.26	-3.28	 12.70	-22.92	 26.21	 0.00	 3.98	 122.93	-44.67	 96.01	 0.00	-29.47	 13.54	 0.00	 0.00	 0.00	-10.17	 0.00	 6.56	-88.42	 7.45	-26.55	 0.00	-11.84	-30.31	 0.00	 0.00	 0.00	 15.80	 40.57	 0.00	-5.17	-37.83	-23.78	
-61.75	 49.17	 2.99	 11.65	-14.77	 114.97	 8.29	-0.88	 0.13	 2.59	 17.06	 10.97	-4.63	 34.00	 4.51	 1.03	-18.16	 0.32	 6.81	 6.08	-2.24	-8.13	 28.56	 6.79	 0.51	 12.16	-25.68	 28.82	 0.00	 5.95	 130.95	-45.99	 104.42	 0.00	-29.44	 13.10	 0.00	 0.00	 0.00	-6.41	 0.00	 5.17	-92.00	-4.10	-28.93	 0.00	-12.32	-30.12	 0.00	 0.00	 0.00	 16.88	 41.75	 0.00	-6.51	-39.34	-24.91	
-64.03	 51.81	 1.40	 12.46	-19.89	 94.98	 11.14	-0.96	 0.19	-0.40	 28.62	 10.42	-4.66	 34.59	 4.57	 0.69	-27.34	 0.32	 5.54	 11.39	-0.59	-8.28	 30.37	 7.09	 3.94	 16.78	-25.13	 29.10	 0.00	 7.86	 136.38	-47.32	 111.22	 0.00	-31.16	 11.98	 0.00	 0.00	 0.00	-3.90	 0.00	 5.98	-93.01	-12.66	-31.69	 0.00	-13.90	-29.78	 0.00	 0.00	 0.00	 16.86	 42.32	 0.00	-7.03	-41.08	-24.90	
-66.15	 53.65	-0.31	 11.91	-24.34	 76.98	 14.97	-2.10	 0.56	-9.12	 44.91	 15.31	-4.65	 34.43	 4.55	 1.40	-38.66	 0.87	 3.77	 12.55	 1.03	-8.44	 32.18	 7.40	 6.46	 24.27	-23.60	 28.58	 0.00	 9.98	 138.50	-48.68	 113.97	 0.00	-33.42	 10.85	 0.00	 0.00	 0.00	-3.84	 0.00	 6.46	-93.13	-20.26	-37.13	 0.00	-15.26	-28.69	 0.00	 0.00	 0.00	 16.21	 42.42	 0.00	-7.16	-42.79	-24.59	
-67.84	 54.89	-1.97	 10.19	-28.80	 62.20	 20.62	-2.41	 0.91	-25.63	 61.57	 26.19	-4.64	 34.12	 4.52	 2.29	-49.34	 1.74	 2.96	 7.25	-1.85	-8.57	 33.55	 7.65	 9.34	 32.23	-22.76	 28.03	 0.00	 11.62	 137.48	-49.87	 114.05	 0.00	-33.41	 10.77	 0.00	 0.00	 0.00	-5.90	 0.00	 6.93	-94.47	-26.46	-45.56	 0.00	-16.56	-26.76	 0.00	 0.00	 0.00	 15.21	 42.11	 0.00	-7.23	-44.22	-24.58	
-69.09	 55.69	-3.34	 7.49	-32.91	 50.35	 27.55	-0.73	 0.38	-61.92	 74.07	 56.00	-4.62	 33.80	 4.49	 0.24	-58.90	 0.21	 1.94	-2.04	-8.27	-8.67	 34.48	 7.82	 12.78	 39.09	-22.91	 27.39	 0.00	 12.10	 134.30	-50.61	 114.24	 0.00	-31.17	 11.64	 0.00	 0.00	 0.00	-9.45	 0.00	 7.61	-97.71	-30.58	-57.10	 0.00	-17.82	-24.03	 0.00	 0.00	 0.00	 14.08	 41.44	 0.00	-7.48	-45.24	-25.32	
